# Blender v2.79 (sub 0) OBJ File: 'lorong.blend'
# www.blender.org
mtllib lorong_close.mtl
o Cube
v 2.057900 0.238245 -2.250000
v 2.250000 0.046145 2.250000
v -2.250000 0.046145 2.250000
v -2.057899 0.238245 -2.250001
v 2.057901 4.354045 -2.249999
v 2.249999 4.546145 2.250001
v -2.250001 4.546145 2.249999
v -2.057900 4.354045 -2.250000
v 2.250000 0.046145 -2.250000
v -2.249999 0.046145 -2.250001
v 2.250001 4.546145 -2.249999
v -2.250000 4.546145 -2.250000
v 2.057899 0.238244 2.268160
v -2.057900 0.238244 2.268159
v 2.057900 4.354044 2.268161
v -2.057901 4.354044 2.268160
v 2.250000 0.046145 -2.350000
v -2.249999 0.046145 -2.350001
v 2.057900 0.238245 -2.350000
v -2.057899 0.238245 -2.350001
v 2.057900 4.510859 -2.250000
v -2.057899 4.510859 -2.250001
v 2.057900 4.510859 -2.350000
v -2.057899 4.510859 -2.350001
vt 0.391889 0.471403
vt 0.322632 0.462421
vt 0.223024 0.535466
vt 0.304397 0.499055
vt 0.348290 0.443481
vt 0.469015 0.392451
vt 0.324529 0.468734
vt 0.301616 0.483374
vt 0.469015 0.392451
vt 0.348290 0.443481
vt 0.348290 0.443481
vt 0.469015 0.392451
vt -0.044423 0.955386
vt -0.044423 0.044614
vt 0.955386 0.044614
vt 0.955386 0.955386
vt 0.973604 0.030221
vt 0.972943 0.982145
vt 0.003616 0.979523
vt 0.004217 0.027328
vt 0.000098 0.000098
vt 0.963207 0.000098
vt 0.963207 0.999902
vt 0.000098 0.999902
vt 0.399290 0.419810
vt 0.999913 0.000087
vt 0.806677 0.675177
vt 0.536554 0.355447
vt 0.366788 0.445659
vt 0.422820 0.437888
vt 0.108794 0.752948
vt 0.000087 0.000087
vt 0.399290 0.419810
vt 0.348290 0.443481
vt 0.042708 0.000021
vt 0.957292 0.000021
vt 0.999979 0.042708
vt 0.000021 0.042708
vt 0.469015 0.392451
vt 0.536554 0.355447
vt 0.042708 0.000021
vt 0.957292 0.000021
vn 0.0000 -1.0000 -0.0000
vn -0.0000 1.0000 0.0000
vn -1.0000 0.0000 -0.0000
vn 1.0000 0.0000 0.0000
vn -0.0000 0.0000 1.0000
vn 0.7071 0.7071 0.0000
vn 0.0000 0.0000 -1.0000
vn -0.7071 0.7071 0.0000
usemtl Material
s off
f 8/1/1 5/2/1 15/3/1 16/4/1
f 1/5/2 4/6/2 14/7/2 13/8/2
f 22/9/2 21/10/2 23/11/2 24/12/2
usemtl Material_Wall.png
f 5/13/3 1/14/3 13/15/3 15/16/3
f 4/17/4 8/18/4 16/19/4 14/20/4
f 4/21/5 1/22/5 21/23/5 22/24/5
usemtl Material_NONE
f 9/25/1 2/26/1 3/27/1 10/28/1
f 11/29/2 12/30/2 7/31/2 6/32/2
f 9/25/4 11/29/4 6/32/4 2/26/4
f 3/27/3 7/31/3 12/30/3 10/28/3
f 1/5/6 9/25/6 17/33/6 19/34/6
f 1/5/7 5/2/7 11/29/7 9/25/7
f 8/1/7 4/6/7 10/28/7 12/30/7
f 5/2/7 8/1/7 12/30/7 11/29/7
f 20/35/7 19/36/7 17/37/7 18/38/7
f 10/28/8 4/6/8 20/39/8 18/40/8
f 9/25/1 10/28/1 18/40/1 17/33/1
f 1/5/4 19/34/4 23/11/4 21/10/4
f 19/36/7 20/35/7 24/41/7 23/42/7
f 20/39/3 4/6/3 22/9/3 24/12/3
