# Blender v2.79 (sub 0) OBJ File: 'lorong.blend'
# www.blender.org
mtllib lorong.mtl
o Cube
v 2.057900 0.238245 -2.250000
v 2.250000 0.046145 2.250000
v -2.250000 0.046145 2.250000
v -2.057899 0.238245 -2.250001
v 2.057901 4.354045 -2.249999
v 2.249999 4.546145 2.250001
v -2.250001 4.546145 2.249999
v -2.057900 4.354045 -2.250000
v 2.250000 0.046145 -2.250000
v -2.249999 0.046145 -2.250001
v 2.250001 4.546145 -2.249999
v -2.250000 4.546145 -2.250000
v 2.057899 0.238244 2.268160
v -2.057900 0.238244 2.268159
v 2.057900 4.354044 2.268161
v -2.057901 4.354044 2.268160
vt 0.391889 0.471403
vt 0.322632 0.462421
vt 0.223024 0.535466
vt 0.304397 0.499055
vt 0.348290 0.443481
vt 0.469015 0.392451
vt 0.324529 0.468734
vt 0.301616 0.483374
vt -0.044423 0.955386
vt -0.044423 0.044614
vt 0.955386 0.044614
vt 0.955386 0.955386
vt 0.973604 0.030221
vt 0.972943 0.982145
vt 0.003616 0.979523
vt 0.004217 0.027328
vt 0.399290 0.419810
vt 0.999913 0.000087
vt 0.806677 0.675177
vt 0.536554 0.355447
vt 0.366788 0.445659
vt 0.422820 0.437888
vt 0.108794 0.752948
vt 0.000087 0.000087
vn 0.0000 -1.0000 -0.0000
vn -0.0000 1.0000 0.0000
vn -1.0000 0.0000 -0.0000
vn 1.0000 0.0000 0.0000
vn 0.0000 0.0000 -1.0000
usemtl Material
s off
f 8/1/1 5/2/1 15/3/1 16/4/1
f 1/5/2 4/6/2 14/7/2 13/8/2
usemtl Material_Wall.png
f 5/9/3 1/10/3 13/11/3 15/12/3
f 4/13/4 8/14/4 16/15/4 14/16/4
usemtl Material_NONE
f 9/17/1 2/18/1 3/19/1 10/20/1
f 11/21/2 12/22/2 7/23/2 6/24/2
f 9/17/4 11/21/4 6/24/4 2/18/4
f 3/19/3 7/23/3 12/22/3 10/20/3
f 4/6/5 1/5/5 9/17/5 10/20/5
f 1/5/5 5/2/5 11/21/5 9/17/5
f 8/1/5 4/6/5 10/20/5 12/22/5
f 5/2/5 8/1/5 12/22/5 11/21/5
